<svg color="#000000" fill="none" height="24" viewBox="0 0 24 24" width="24" xmlns="http://www.w3.org/2000/svg"><path d="M10.5586 22C11.387 22 12.0586 21.317 12.0586 20.4746C12.0586 19.6321 11.387 18.9492 10.5586 18.9492C9.73017 18.9492 9.05859 19.6321 9.05859 20.4746C9.05859 21.317 9.73017 22 10.5586 22Z" fill="#696969"></path><path d="M17.6177 22C18.4461 22 19.1177 21.317 19.1177 20.4746C19.1177 19.6321 18.4461 18.9492 17.6177 18.9492C16.7892 18.9492 16.1177 19.6321 16.1177 20.4746C16.1177 21.317 16.7892 22 17.6177 22Z" fill="#696969"></path><path d="M2 2.06277C3.76471 2.0629 4.94118 1.4978 6.11765 3.75768M6.11765 3.75768H19.2461C20.6051 3.75768 21.5684 5.0841 21.1479 6.37649L19.5082 11.416C19.2402 12.2397 18.4725 12.7972 17.6064 12.7972H9.05882M6.11765 3.75768L9.05882 12.7972M20.8235 16.752H9.27151C8.17943 16.752 7.29412 15.8667 7.29412 14.7746V14.5619C7.29412 13.5873 8.0842 12.7972 9.05882 12.7972V12.7972" stroke="#696969" stroke-linecap="round" stroke-width="1.8"></path></svg>